HIERARCHY
ROOT Model_Hips
{
	OFFSET 0.000000 96.915077 0.000000
	CHANNELS 6 Xposition Yposition Zposition Xrotation Yrotation Zrotation
	JOINT Model_Spine
	{
		OFFSET 0.000000 11.137703 -1.289900
		CHANNELS 3 Xrotation Yrotation Zrotation
		JOINT Model_Spine1
		{
			OFFSET 0.000000 12.993942 -1.504922
			CHANNELS 3 Xrotation Yrotation Zrotation
			JOINT Model_Spine2
			{
				OFFSET 0.000000 14.850220 -1.719911
				CHANNELS 3 Xrotation Yrotation Zrotation
				JOINT Model_Neck
				{
					OFFSET 0.000000 16.706543 -1.934903
					CHANNELS 3 Xrotation Yrotation Zrotation
					JOINT Model_Head
					{
						OFFSET 0.000000 10.471298 2.002100
						CHANNELS 3 Xrotation Yrotation Zrotation
						JOINT Model_HeadTop_End
						{
							OFFSET 0.000000 20.842606 3.985100
							CHANNELS 3 Xrotation Yrotation Zrotation
							End Site
							{
								OFFSET 0.000000 21.220154 0.000000
							}
						}
					}
				}
				JOINT Model_LeftShoulder
				{
					OFFSET 7.008500 14.768600 -1.919946
					CHANNELS 3 Xrotation Yrotation Zrotation
					JOINT Model_LeftArm
					{
						OFFSET 14.126271 -3.718048 0.029937
						CHANNELS 3 Xrotation Yrotation Zrotation
						JOINT Model_LeftForeArm
						{
							OFFSET 28.282801 0.000000 0.000000
							CHANNELS 3 Xrotation Yrotation Zrotation
							JOINT Model_LeftHand
							{
								OFFSET 26.204689 0.000000 0.000000
								CHANNELS 3 Xrotation Yrotation Zrotation
								End Site
								{
									OFFSET 26.204704 0.000000 0.000000
								}
							}
						}
					}
				}
				JOINT Model_RightShoulder
				{
					OFFSET -7.008500 14.768555 -1.949840
					CHANNELS 3 Xrotation Yrotation Zrotation
					JOINT Model_RightArm
					{
						OFFSET -14.126281 -3.718018 -0.029932
						CHANNELS 3 Xrotation Yrotation Zrotation
						JOINT Model_RightForeArm
						{
							OFFSET -28.283798 0.000000 -0.000001
							CHANNELS 3 Xrotation Yrotation Zrotation
							JOINT Model_RightHand
							{
								OFFSET -26.204193 0.000000 -0.000001
								CHANNELS 3 Xrotation Yrotation Zrotation
								End Site
								{
									OFFSET -26.204208 0.000000 -0.000001
								}
							}
						}
					}
				}
			}
		}
	}
	JOINT Model_LeftUpLeg
	{
		OFFSET 8.327700 -6.193199 -0.402800
		CHANNELS 3 Xrotation Yrotation Zrotation
		JOINT Model_LeftLeg
		{
			OFFSET 0.735802 -42.108742 -0.610721
			CHANNELS 3 Xrotation Yrotation Zrotation
			JOINT Model_LeftFoot
			{
				OFFSET -0.735806 -36.833748 -0.172876
				CHANNELS 3 Xrotation Yrotation Zrotation
				JOINT Model_LeftToeBase
				{
					OFFSET -0.565857 -11.977769 16.297714
					CHANNELS 3 Xrotation Yrotation Zrotation
					JOINT Model_LeftToe_End
					{
						OFFSET -0.111712 -0.312793 7.857784
						CHANNELS 3 Xrotation Yrotation Zrotation
						End Site
						{
							OFFSET -0.111712 -0.312793 7.857784
						}
					}
				}
			}
		}
	}
	JOINT Model_RightUpLeg
	{
		OFFSET -8.327700 -6.193199 -0.516500
		CHANNELS 3 Xrotation Yrotation Zrotation
		JOINT Model_RightLeg
		{
			OFFSET -0.735785 -42.108738 -0.434061
			CHANNELS 3 Xrotation Yrotation Zrotation
			JOINT Model_RightFoot
			{
				OFFSET 0.735776 -36.833748 -0.021630
				CHANNELS 3 Xrotation Yrotation Zrotation
				JOINT Model_RightToeBase
				{
					OFFSET 0.565817 -11.977745 15.903093
					CHANNELS 3 Xrotation Yrotation Zrotation
					JOINT Model_RightToe_End
					{
						OFFSET 0.111702 -0.312791 7.811342
						CHANNELS 3 Xrotation Yrotation Zrotation
						End Site
						{
							OFFSET 0.111702 -0.312791 7.811342
						}
					}
				}
			}
		}
	}
}
MOTION
Frames: 10
Frame Time: 0.016667
-0.164778 94.799187 0.028135 -4.724505 0.237346 1.195847 14.333379 -2.168690 -0.683431 14.141143 -0.507934 0.530377 14.138590 -0.526631 0.561748 3.960962 -3.583340 2.477005 4.094205 -3.580634 2.298520 0.000000 0.000001 -0.000001 -0.654165 -14.856293 -21.978659 -32.555417 -16.226509 -52.642942 0.000004 -4.569642 0.000004 0.000000 0.000001 -0.000000 0.098822 7.793631 22.492769 -29.529380 29.042101 56.645583 0.000035 10.667058 -0.000000 0.000001 -0.000001 0.000000 -24.460683 5.224075 2.619516 49.516645 9.861897 1.121604 -4.172843 2.559574 -5.849529 -7.864479 0.072167 -0.433858 0.000001 0.000002 0.000000 -14.334593 -5.514054 1.488504 30.749372 4.692572 -0.165780 -11.903588 0.288343 -3.311101 1.457681 0.000002 0.000003 -0.000000 -0.000000 0.000000 
-0.436761 94.852959 -0.887118 -4.674581 0.843563 1.144800 14.116166 -2.213810 -0.698601 14.094034 -0.515430 0.552161 14.091264 -0.534825 0.583907 3.948992 -3.603159 2.445498 4.083189 -3.600636 2.266680 -0.000001 -0.000000 -0.000000 -0.684777 -15.026495 -22.093218 -33.152943 -17.251212 -53.320415 0.000009 -5.284821 0.000001 -0.000000 0.000000 0.000000 0.128127 7.573403 22.372838 -28.483511 27.788326 55.939328 0.000027 10.385539 -0.000009 -0.000000 -0.000000 -0.000000 -23.536974 5.770213 2.760907 51.565729 9.885685 0.777107 -5.350522 2.329802 -5.882635 -9.624934 0.096976 -0.495035 0.000001 -0.000001 -0.000000 -14.533524 -5.554665 1.704048 29.870200 4.039538 -0.038459 -11.007524 0.291508 -3.501966 2.236619 0.000013 -0.026943 0.000000 0.000000 0.000000 
-0.694138 94.853958 -1.809223 -4.633148 1.548272 1.046850 13.899560 -2.308569 -0.647897 14.047005 -0.537424 0.580230 14.043952 -0.556813 0.612567 3.955481 -3.626445 2.416593 4.090108 -3.624145 2.237354 0.000001 0.000000 -0.000001 -0.717910 -15.251375 -22.169906 -33.771980 -18.185549 -54.008283 0.000003 -5.942909 0.000003 -0.000000 0.000001 -0.000000 0.160351 7.319606 22.263386 -27.555579 26.575298 55.301013 0.000009 10.017618 -0.000012 -0.000000 -0.000000 0.000001 -22.464084 6.243682 2.887636 53.355805 9.886292 0.493153 -6.585330 1.827495 -5.902494 -11.152564 0.112062 -0.492605 0.000001 0.000003 -0.000001 -14.865922 -5.612601 1.936223 29.214283 3.371239 0.113159 -10.249419 0.290295 -3.704071 2.819938 0.000020 -0.035402 -0.000000 0.000000 0.000000 
-0.942576 94.823708 -2.746082 -4.624946 2.330093 0.905685 13.724039 -2.476269 -0.537505 14.002130 -0.580701 0.613144 13.998705 -0.599354 0.646470 3.973172 -3.646200 2.396167 4.107831 -3.644091 2.216653 -0.000000 0.000001 -0.000001 -0.744320 -15.458275 -22.200128 -34.218401 -19.140758 -54.701342 -0.000009 -7.149996 0.000021 -0.000001 -0.000001 -0.000000 0.190865 7.068719 22.181599 -26.737669 25.437786 54.725050 0.000019 9.587384 -0.000013 -0.000000 -0.000001 -0.000000 -21.191630 6.685334 3.018797 54.753696 9.892735 0.264405 -7.705261 1.104265 -5.694631 -12.812141 0.163452 -0.629831 0.000000 -0.000000 -0.000001 -15.213678 -5.678013 2.204209 28.592753 2.681331 0.269750 -9.498651 0.291145 -3.958033 3.236676 -0.000000 -0.000001 -0.000000 -0.000000 0.000000 
-1.184286 94.787773 -3.704139 -4.671803 3.144617 0.754238 13.625421 -2.732706 -0.402974 13.966414 -0.649963 0.644479 13.962631 -0.667232 0.679340 3.990506 -3.654954 2.388532 4.124745 -3.652968 2.208926 0.000002 -0.000000 0.000000 -0.755438 -15.578162 -22.178702 -34.511921 -20.213673 -55.405808 -0.000002 -8.691827 -0.000008 0.000003 -0.000000 0.000000 0.213357 6.872250 22.155312 -26.004303 24.425308 54.169438 0.000009 9.117760 0.000025 0.000000 -0.000001 -0.000000 -19.692778 7.151554 3.159393 55.659222 9.525043 0.074545 -8.549988 0.713447 -5.204805 -14.804350 0.274035 -0.942942 0.000001 -0.000002 -0.000000 -15.469646 -5.731528 2.494774 27.854934 1.948247 0.392681 -8.662127 0.289036 -4.247491 3.288271 -0.000000 -0.000003 0.000001 -0.000000 0.000000 
-1.414210 94.758209 -4.688014 -4.758974 3.946257 0.624538 13.594693 -3.060251 -0.274973 13.943938 -0.740455 0.667864 13.939866 -0.755788 0.704677 4.002037 -3.652233 2.395412 4.135593 -3.650361 2.215737 0.000000 0.000001 -0.000001 -0.750741 -15.605702 -22.107847 -34.813437 -21.431515 -56.139350 0.000004 -9.923471 0.000004 -0.000000 -0.000001 0.000000 0.225547 6.749085 22.202109 -25.344520 23.563330 53.592273 0.000013 8.621195 -0.000009 -0.000000 -0.000000 -0.000001 -18.006112 7.641758 3.293802 56.071823 8.834342 -0.088854 -9.120890 0.697979 -4.704908 -17.012413 0.391459 -1.205487 0.000000 -0.000001 -0.000000 -15.639625 -5.751703 2.775387 26.983226 1.172814 0.459304 -7.726386 0.279270 -4.512392 3.339987 0.000001 -0.000000 0.000001 -0.000000 0.000000 
-1.623309 94.727020 -5.699674 -4.844851 4.712654 0.534679 13.583904 -3.411990 -0.170715 13.930377 -0.838600 0.681830 13.926224 -0.851698 0.720659 4.013968 -3.643996 2.414458 4.146629 -3.642222 2.234528 0.000002 0.000000 -0.000000 -0.740309 -15.613061 -22.005131 -35.158986 -22.719130 -56.880275 -0.000002 -10.924555 -0.000002 0.000000 0.000001 -0.000001 0.231144 6.674583 22.293266 -24.758502 22.821390 52.997091 0.000028 8.109746 -0.000007 -0.000002 -0.000000 -0.000000 -16.196880 8.091581 3.352351 56.023708 8.144732 -0.227453 -9.447273 0.709147 -4.498529 -19.471795 0.427717 -1.153353 0.000000 -0.000001 -0.000000 -15.821039 -5.727515 3.004695 26.072816 0.383036 0.479138 -6.730928 0.257440 -4.707293 3.479116 0.000001 0.000001 0.000001 -0.000000 0.000000 
-1.806334 94.674538 -6.739182 -4.892551 5.451959 0.488633 13.545635 -3.751730 -0.096900 13.916524 -0.932966 0.692218 13.912371 -0.943972 0.732928 4.034618 -3.633511 2.436470 4.166472 -3.631803 2.255986 0.000001 0.000000 -0.000000 -0.736796 -15.678223 -21.908426 -35.512100 -24.040425 -57.612311 -0.000003 -11.855120 0.000015 -0.000000 -0.000001 0.000000 0.235450 6.618116 22.363356 -24.234616 22.137422 52.422583 0.000018 7.606578 0.000014 0.000002 -0.000000 -0.000000 -14.312493 8.430467 3.272859 55.505655 7.449551 -0.331781 -9.461301 0.753169 -4.632152 -22.545071 0.320543 -0.737830 0.000000 0.000000 -0.000000 -16.124620 -5.669777 3.146345 25.263079 -0.394870 0.483394 -5.743037 0.226807 -4.832262 3.663379 -0.000000 0.000000 -0.000000 -0.000000 0.000000 
-1.966363 94.596397 -7.807810 -4.879189 6.184546 0.468241 13.458220 -4.074162 -0.041853 13.895018 -1.020637 0.709897 13.890834 -1.030064 0.752426 4.062575 -3.617976 2.448631 4.193985 -3.616317 2.267264 0.000001 -0.000001 0.000000 -0.745624 -15.811020 -21.857953 -35.827132 -25.425806 -58.342035 -0.000019 -12.770038 -0.000013 -0.000001 0.000000 0.000001 0.240831 6.570020 22.363378 -23.748776 21.473317 51.894814 0.000009 7.143750 -0.000017 0.000001 -0.000000 -0.000001 -12.386821 8.633976 3.054098 54.494193 6.871490 -0.384192 -9.187882 0.819718 -5.032801 -26.273199 0.059842 -0.118381 0.000000 -0.000000 -0.000000 -16.576036 -5.602605 3.201308 24.562095 -1.152817 0.498673 -4.779296 0.190951 -4.918586 3.834141 -0.000000 0.000001 0.000001 -0.000000 0.000000 
-2.111763 94.499985 -8.908776 -4.797025 6.913936 0.433824 13.325189 -4.377347 0.023800 13.865135 -1.100642 0.743592 13.860655 -1.109117 0.787962 4.088534 -3.595254 2.442510 4.219855 -3.593730 2.259988 -0.000002 0.000001 0.000000 -0.764661 -15.971532 -21.873022 -36.111050 -26.908910 -59.088923 0.000004 -13.604662 0.000001 -0.000002 -0.000001 0.000000 0.247069 6.531330 22.295401 -23.279002 20.842467 51.403696 0.000008 6.745164 -0.000004 -0.000002 -0.000000 0.000000 -10.442683 8.763364 2.649273 53.202638 6.562405 -0.377297 -9.669627 0.898921 -4.950443 -28.388556 -0.028827 0.055631 0.000000 0.000000 -0.000000 -17.133420 -5.537561 3.219110 23.877301 -1.893863 0.522613 -3.809034 0.149562 -4.985165 3.966841 0.000000 0.000002 0.000000 0.000000 0.000000 
